<svg xmlns="http://www.w3.org/2000/svg" viewBox="0 0 512.001 512.001"><path d="M0 345.001V52.224a9.6 9.6 0 0 1 9.4-9.4h443.864a9.6 9.6 0 0 1 9.4 9.4v292.8L0 345.001z"/><path d="M462.664 345.001v37.6a9.6 9.6 0 0 1-9.4 9.4H9.4a9.598 9.598 0 0 1-9.4-9.407v-37.6l462.664.007zM132.293 458.5h198.076v9.402H132.293z" fill="#bcbcbc"/><path fill="#2d2d2d" d="M297.12 458.497H165.544l9.4-66.505H287.72z"/><path fill="#ccc" d="M18.794 61.628H443.87v264.587H18.794z"/><path d="M287.72 391.992H174.944l-5.248 37.121 119.712-25.168z"/><path d="M89.468 227.261h283.745v12H89.468zm51.62 36.066h180.496v12H141.088z" fill="#999"/><path fill="#fff" d="M36.458 133.956h389.757v174.596H36.458z"/><path d="M236.7 168.537h175.286v3.544H236.7z"/><path d="M236.7 180.469h175.286v3.544H236.7zm0 9.149h175.286v3.544H236.7zm0 9.14h175.286v3.544H236.7zm0 9.15h175.286v3.544H236.7zm0 9.13h175.286v3.544H236.7zm0 9.15h175.286v3.544H236.7zm0 9.14h175.286v3.544H236.7zm0 9.149h175.286v3.544H236.7zm0 9.131h175.286v3.544H236.7zm0 9.15h175.286v3.544H236.7zm0 9.14h175.286v3.544H236.7z" fill="#ccc"/><path fill="#e81241" d="M36.458 79.274h389.757v44.648H36.458z"/><path d="M105.888 191.384l-11.216-33.183H65.64v-8.865h35.4l13.248 39.208z"/><circle cx="170.226" cy="274.493" r="17.072"/><circle cx="118.719" cy="274.493" r="17.072"/><path fill="#fff" d="M106.352 247.793l-19.256-61.856h117.576l-22.048 61.856z"/><g fill="#e21b1b"><path d="M201.832 187.937l-20.616 57.848h-73.392l-18.016-57.848h112m5.672-4H84.376l20.504 65.848H184l23.472-65.848h.008z"/><path d="M195.92 206.641h-28.568l-6.864 12.064h-28.28l2.672 8.352h52.792z"/></g><path d="M488.168 469.176H364.8c-13.147-.035-23.797-10.684-23.832-23.832V185.137c.035-13.147 10.684-23.797 23.832-23.832h123.368c13.147.035 23.797 10.684 23.832 23.832v260.208c-.039 13.145-10.686 23.792-23.832 23.831z"/><g fill="#ccc"><path d="M352.244 185.603h148.473v242.759H352.244zm96.5-9.603H418.4a2.488 2.488 0 0 1-2.48-2.48 2.488 2.488 0 0 1 2.48-2.48h30.4a2.488 2.488 0 0 1 2.48 2.48 2.489 2.489 0 0 1-2.496 2.481l-.04-.001z"/><circle cx="404.219" cy="173.513" r="2.48"/><path d="M426.48 460.497c-6.481 0-11.736-5.254-11.736-11.736 0-6.481 5.254-11.736 11.736-11.736 6.482 0 11.736 5.254 11.736 11.736-.009 6.477-5.258 11.727-11.736 11.736zm0-21.072a9.336 9.336 0 1 0 9.336 9.336c-.005-5.154-4.182-9.332-9.336-9.336z"/></g><path fill="#fff" d="M363.942 255.251h125.077V413.48H363.942z"/><path d="M378.18 351.143h96.611v3.544H378.18z"/><path d="M378.18 363.084h96.611v3.544H378.18zm0 9.149h96.611v3.544H378.18zm0 9.14h96.611v3.544H378.18zm0 9.141h96.611v3.544H378.18zm0 9.14h96.611v3.544H378.18z" fill="#ccc"/><path fill="#e81241" d="M363.942 200.569h125.077v44.648H363.942z"/><path d="M412.056 289.848l-5.264-15.591h-13.64v-4.169h16.632l6.224 18.424z"/><circle cx="442.291" cy="328.895" r="8.024"/><circle cx="418.092" cy="328.895" r="8.024"/><path fill="#fff" d="M412.321 316.281l-9.009-28.937h55.08l-10.312 28.937z"/><g fill="#e21b1b"><path d="M456.968 288.344l-9.6 26.936h-34.312l-8.392-26.936h52.296m2.832-2h-57.84l9.6 30.936H448.8l11.024-30.936h-.032z"/><path d="M454.36 297.297h-13.424l-3.224 5.664h-13.288l1.256 3.928h24.808z"/></g></svg>