<svg xmlns="http://www.w3.org/2000/svg" viewBox="0 0 512 512"><path d="M361.931 494.345H150.069c0-19.5 15.81-35.31 35.31-35.31H326.62c19.501-.001 35.311 15.81 35.311 35.31" fill="#e8edee"/><path fill="#b0b6bb" d="M317.793 459.034H194.207l17.655-70.62h88.276z"/><path d="M512 317.793H0V48.552c0-17.064 13.833-30.897 30.897-30.897h450.207c17.064 0 30.897 13.833 30.897 30.897v269.241z" fill="#38454f"/><path d="M481.103 388.414H30.897C13.833 388.414 0 374.581 0 357.517v-39.724h512v39.724c0 17.064-13.833 30.897-30.897 30.897" fill="#e8edee"/><path d="M432.552 282.483H300.138a8.826 8.826 0 0 1-8.828-8.828 8.826 8.826 0 0 1 8.828-8.828h132.414a8.826 8.826 0 0 1 8.828 8.828 8.827 8.827 0 0 1-8.828 8.828m-264.828-52.966H79.448a8.826 8.826 0 0 1-8.828-8.828 8.826 8.826 0 0 1 8.828-8.828h88.276a8.826 8.826 0 0 1 8.828 8.828 8.826 8.826 0 0 1-8.828 8.828m220.69 0H256a8.826 8.826 0 0 1-8.828-8.828 8.826 8.826 0 0 1 8.828-8.828h132.414a8.826 8.826 0 0 1 8.828 8.828 8.827 8.827 0 0 1-8.828 8.828m-176.552 0c-1.148 0-2.295-.265-3.354-.706-1.148-.441-2.03-1.059-2.913-1.854-1.598-1.677-2.56-3.884-2.56-6.268s.962-4.59 2.56-6.268c.883-.794 1.766-1.412 2.913-1.854 3.169-1.324 7.15-.618 9.622 1.854 1.589 1.677 2.56 3.972 2.56 6.268 0 2.295-.971 4.59-2.56 6.268-1.678 1.589-3.973 2.56-6.268 2.56M256 282.483H123.586a8.826 8.826 0 0 1-8.828-8.828 8.826 8.826 0 0 1 8.828-8.828H256a8.826 8.826 0 0 1 8.828 8.828 8.826 8.826 0 0 1-8.828 8.828m-176.552 0c-1.148 0-2.295-.265-3.354-.706a10.182 10.182 0 0 1-2.913-1.854c-1.598-1.677-2.56-3.884-2.56-6.268 0-1.148.265-2.295.706-3.354.441-1.148 1.059-2.03 1.854-2.913 2.119-2.03 5.12-2.913 7.936-2.383a5.36 5.36 0 0 1 1.686.53c.521.177 1.059.441 1.501.794.521.353.971.706 1.412 1.059.794.883 1.412 1.766 1.854 2.913.441 1.059.706 2.207.706 3.354 0 2.383-.971 4.59-2.56 6.268a21.9 21.9 0 0 1-1.412 1.059c-.441.353-.98.618-1.501.794a5.386 5.386 0 0 1-1.686.53c-.521.088-1.139.177-1.669.177m353.104-52.966c-.538 0-1.148-.088-1.677-.177a5.307 5.307 0 0 1-1.677-.53 6.93 6.93 0 0 1-1.598-.794c-.433-.353-.874-.706-1.315-1.059-1.598-1.677-2.56-3.972-2.56-6.268 0-2.295.962-4.59 2.56-6.268l1.315-1.059a6.89 6.89 0 0 1 1.598-.794 5.341 5.341 0 0 1 1.677-.53c2.825-.618 5.906.353 7.945 2.383.353.441.706.883 1.059 1.412.353.441.609.971.794 1.501.265.53.441 1.059.521 1.677.097.53.185 1.148.185 1.677s-.088 1.148-.185 1.766a5.304 5.304 0 0 1-.521 1.589 7.02 7.02 0 0 1-.794 1.589l-1.059 1.324c-.441.353-.892.706-1.324 1.059a6.836 6.836 0 0 1-1.589.794 5.386 5.386 0 0 1-1.686.53c-.522.09-1.14.178-1.669.178m0-105.931H300.138c-4.882 0-8.828-3.955-8.828-8.828s3.946-8.828 8.828-8.828h132.414c4.882 0 8.828 3.955 8.828 8.828s-3.947 8.828-8.828 8.828m0 52.966h-88.276c-4.882 0-8.828-3.955-8.828-8.828s3.946-8.828 8.828-8.828h88.276c4.882 0 8.828 3.955 8.828 8.828s-3.947 8.828-8.828 8.828m-158.897 0H256c-4.882 0-8.828-3.955-8.828-8.828s3.946-8.828 8.828-8.828h17.655c4.882 0 8.828 3.955 8.828 8.828s-3.946 8.828-8.828 8.828M388.414 70.621H256c-4.882 0-8.828-3.955-8.828-8.828s3.946-8.828 8.828-8.828h132.414c4.882 0 8.828 3.955 8.828 8.828s-3.947 8.828-8.828 8.828m44.138 0c-.538 0-1.148-.088-1.677-.177a5.307 5.307 0 0 1-1.677-.53 6.93 6.93 0 0 1-1.598-.794c-.433-.353-.874-.706-1.315-1.059-1.598-1.677-2.56-3.972-2.56-6.268 0-2.295.962-4.59 2.56-6.268l1.315-1.059a6.89 6.89 0 0 1 1.598-.794 5.341 5.341 0 0 1 1.677-.53c2.825-.618 5.906.353 7.945 2.383.353.441.706.883 1.059 1.412.353.441.609.971.794 1.501.265.53.441 1.059.521 1.677.097.53.185 1.148.185 1.677s-.088 1.148-.185 1.766a5.304 5.304 0 0 1-.521 1.589 7.02 7.02 0 0 1-.794 1.589l-1.059 1.324c-.441.353-.892.706-1.324 1.059a6.836 6.836 0 0 1-1.589.794 5.386 5.386 0 0 1-1.686.53c-.522.089-1.14.178-1.669.178m-167.724 52.965c-2.295 0-4.599-.971-6.268-2.56-.794-.883-1.412-1.854-1.854-2.913s-.706-2.207-.706-3.354c0-1.148.265-2.295.706-3.354s1.059-2.03 1.854-2.913c2.03-2.03 5.12-2.913 7.936-2.383a5.36 5.36 0 0 1 1.686.53c.521.177 1.059.441 1.501.794a9.12 9.12 0 0 1 1.324 1.059c.883.883 1.501 1.854 1.942 2.913s.706 2.207.706 3.354c0 1.148-.265 2.295-.706 3.354s-1.059 2.03-1.942 2.913a9.12 9.12 0 0 1-1.324 1.059c-.441.353-.98.618-1.501.794a5.386 5.386 0 0 1-1.686.53c-.521.089-1.139.177-1.668.177m44.138 52.966c-2.392 0-4.599-.971-6.268-2.56-1.598-1.677-2.56-3.972-2.56-6.268 0-2.295.962-4.59 2.56-6.268 3.266-3.266 9.269-3.266 12.535 0 1.589 1.677 2.56 3.972 2.56 6.268 0 .618-.088 1.148-.185 1.766a5.304 5.304 0 0 1-.521 1.589 7.02 7.02 0 0 1-.794 1.589l-1.059 1.324c-1.678 1.589-3.885 2.56-6.268 2.56" fill="#ea6148"/><path fill="#ecba16" d="M79.448 176.552h123.586V52.966H79.448z"/></svg>